<mxfile host="app.diagrams.net" agent="Mozilla/5.0 (Macintosh; Intel Mac OS X 10_15_7) AppleWebKit/537.36 (KHTML, like Gecko) Chrome/131.0.0.0 Safari/537.36" version="25.0.3">
  <diagram name="第 1 页" id="G_lTRqMcDOqiXMyNoaaS">
    <mxGraphModel dx="1590" dy="2177" grid="1" gridSize="10" guides="1" tooltips="1" connect="1" arrows="1" fold="1" page="1" pageScale="1" pageWidth="827" pageHeight="1169" math="0" shadow="0">
      <root>
        <mxCell id="0" />
        <mxCell id="1" parent="0" />
        <mxCell id="vomHpcGAZytRWocXFcRo-36" value="" style="group" vertex="1" connectable="0" parent="1">
          <mxGeometry x="60" y="-60" width="640" height="690" as="geometry" />
        </mxCell>
        <mxCell id="vomHpcGAZytRWocXFcRo-34" value="" style="rounded=0;whiteSpace=wrap;html=1;" vertex="1" parent="vomHpcGAZytRWocXFcRo-36">
          <mxGeometry width="640" height="690" as="geometry" />
        </mxCell>
        <mxCell id="vomHpcGAZytRWocXFcRo-9" style="edgeStyle=orthogonalEdgeStyle;rounded=0;orthogonalLoop=1;jettySize=auto;html=1;exitX=0.5;exitY=1;exitDx=0;exitDy=0;" edge="1" parent="vomHpcGAZytRWocXFcRo-36" source="vomHpcGAZytRWocXFcRo-2" target="vomHpcGAZytRWocXFcRo-6">
          <mxGeometry relative="1" as="geometry" />
        </mxCell>
        <mxCell id="vomHpcGAZytRWocXFcRo-2" value="&lt;span style=&quot;font-size: 18px;&quot;&gt;开始&lt;/span&gt;" style="ellipse;whiteSpace=wrap;html=1;" vertex="1" parent="vomHpcGAZytRWocXFcRo-36">
          <mxGeometry x="260" y="90" width="70" height="60" as="geometry" />
        </mxCell>
        <mxCell id="vomHpcGAZytRWocXFcRo-11" value="" style="edgeStyle=orthogonalEdgeStyle;rounded=0;orthogonalLoop=1;jettySize=auto;html=1;" edge="1" parent="vomHpcGAZytRWocXFcRo-36" source="vomHpcGAZytRWocXFcRo-6" target="vomHpcGAZytRWocXFcRo-10">
          <mxGeometry relative="1" as="geometry" />
        </mxCell>
        <mxCell id="vomHpcGAZytRWocXFcRo-23" value="N" style="edgeLabel;html=1;align=center;verticalAlign=middle;resizable=0;points=[];" vertex="1" connectable="0" parent="vomHpcGAZytRWocXFcRo-11">
          <mxGeometry x="-0.4395" y="1" relative="1" as="geometry">
            <mxPoint as="offset" />
          </mxGeometry>
        </mxCell>
        <mxCell id="vomHpcGAZytRWocXFcRo-12" style="edgeStyle=orthogonalEdgeStyle;rounded=0;orthogonalLoop=1;jettySize=auto;html=1;" edge="1" parent="vomHpcGAZytRWocXFcRo-36" source="vomHpcGAZytRWocXFcRo-6">
          <mxGeometry relative="1" as="geometry">
            <mxPoint x="295" y="290" as="targetPoint" />
          </mxGeometry>
        </mxCell>
        <mxCell id="vomHpcGAZytRWocXFcRo-24" value="Y" style="edgeLabel;html=1;align=center;verticalAlign=middle;resizable=0;points=[];" vertex="1" connectable="0" parent="vomHpcGAZytRWocXFcRo-12">
          <mxGeometry x="-0.2158" relative="1" as="geometry">
            <mxPoint as="offset" />
          </mxGeometry>
        </mxCell>
        <mxCell id="vomHpcGAZytRWocXFcRo-6" value="TBox休眠" style="rhombus;whiteSpace=wrap;html=1;" vertex="1" parent="vomHpcGAZytRWocXFcRo-36">
          <mxGeometry x="216.25" y="180" width="157.5" height="60" as="geometry" />
        </mxCell>
        <mxCell id="vomHpcGAZytRWocXFcRo-21" style="edgeStyle=orthogonalEdgeStyle;rounded=0;orthogonalLoop=1;jettySize=auto;html=1;entryX=0;entryY=0.5;entryDx=0;entryDy=0;" edge="1" parent="vomHpcGAZytRWocXFcRo-36" source="vomHpcGAZytRWocXFcRo-10" target="vomHpcGAZytRWocXFcRo-20">
          <mxGeometry relative="1" as="geometry">
            <Array as="points">
              <mxPoint x="80" y="600" />
            </Array>
          </mxGeometry>
        </mxCell>
        <mxCell id="vomHpcGAZytRWocXFcRo-10" value="反馈:不满足唤醒需求" style="whiteSpace=wrap;html=1;" vertex="1" parent="vomHpcGAZytRWocXFcRo-36">
          <mxGeometry x="20" y="380" width="120" height="40" as="geometry" />
        </mxCell>
        <mxCell id="vomHpcGAZytRWocXFcRo-16" value="" style="edgeStyle=orthogonalEdgeStyle;rounded=0;orthogonalLoop=1;jettySize=auto;html=1;" edge="1" parent="vomHpcGAZytRWocXFcRo-36" source="vomHpcGAZytRWocXFcRo-13" target="vomHpcGAZytRWocXFcRo-15">
          <mxGeometry relative="1" as="geometry" />
        </mxCell>
        <mxCell id="vomHpcGAZytRWocXFcRo-13" value="接收短信唤醒" style="rounded=0;whiteSpace=wrap;html=1;" vertex="1" parent="vomHpcGAZytRWocXFcRo-36">
          <mxGeometry x="235" y="290" width="120" height="40" as="geometry" />
        </mxCell>
        <mxCell id="vomHpcGAZytRWocXFcRo-18" value="Y" style="edgeStyle=orthogonalEdgeStyle;rounded=0;orthogonalLoop=1;jettySize=auto;html=1;" edge="1" parent="vomHpcGAZytRWocXFcRo-36" source="vomHpcGAZytRWocXFcRo-15" target="vomHpcGAZytRWocXFcRo-17">
          <mxGeometry relative="1" as="geometry" />
        </mxCell>
        <mxCell id="vomHpcGAZytRWocXFcRo-26" value="" style="edgeStyle=orthogonalEdgeStyle;rounded=0;orthogonalLoop=1;jettySize=auto;html=1;" edge="1" parent="vomHpcGAZytRWocXFcRo-36" source="vomHpcGAZytRWocXFcRo-15" target="vomHpcGAZytRWocXFcRo-25">
          <mxGeometry relative="1" as="geometry" />
        </mxCell>
        <mxCell id="vomHpcGAZytRWocXFcRo-33" value="N" style="edgeLabel;html=1;align=center;verticalAlign=middle;resizable=0;points=[];" vertex="1" connectable="0" parent="vomHpcGAZytRWocXFcRo-26">
          <mxGeometry x="-0.2077" y="-1" relative="1" as="geometry">
            <mxPoint as="offset" />
          </mxGeometry>
        </mxCell>
        <mxCell id="vomHpcGAZytRWocXFcRo-15" value="短信唤醒成功" style="rhombus;whiteSpace=wrap;html=1;" vertex="1" parent="vomHpcGAZytRWocXFcRo-36">
          <mxGeometry x="216.25" y="370" width="157.5" height="60" as="geometry" />
        </mxCell>
        <mxCell id="vomHpcGAZytRWocXFcRo-22" style="edgeStyle=orthogonalEdgeStyle;rounded=0;orthogonalLoop=1;jettySize=auto;html=1;entryX=0.5;entryY=0;entryDx=0;entryDy=0;" edge="1" parent="vomHpcGAZytRWocXFcRo-36" source="vomHpcGAZytRWocXFcRo-17" target="vomHpcGAZytRWocXFcRo-20">
          <mxGeometry relative="1" as="geometry" />
        </mxCell>
        <mxCell id="vomHpcGAZytRWocXFcRo-17" value="发起登入" style="whiteSpace=wrap;html=1;" vertex="1" parent="vomHpcGAZytRWocXFcRo-36">
          <mxGeometry x="235" y="480" width="120" height="40" as="geometry" />
        </mxCell>
        <mxCell id="vomHpcGAZytRWocXFcRo-20" value="&lt;font style=&quot;font-size: 18px;&quot;&gt;结束&lt;/font&gt;" style="ellipse;whiteSpace=wrap;html=1;" vertex="1" parent="vomHpcGAZytRWocXFcRo-36">
          <mxGeometry x="260" y="570" width="70" height="60" as="geometry" />
        </mxCell>
        <mxCell id="vomHpcGAZytRWocXFcRo-31" style="edgeStyle=orthogonalEdgeStyle;rounded=0;orthogonalLoop=1;jettySize=auto;html=1;entryX=0.5;entryY=0;entryDx=0;entryDy=0;" edge="1" parent="vomHpcGAZytRWocXFcRo-36" source="vomHpcGAZytRWocXFcRo-25" target="vomHpcGAZytRWocXFcRo-30">
          <mxGeometry relative="1" as="geometry" />
        </mxCell>
        <mxCell id="vomHpcGAZytRWocXFcRo-25" value="读取短信内容" style="whiteSpace=wrap;html=1;" vertex="1" parent="vomHpcGAZytRWocXFcRo-36">
          <mxGeometry x="460" y="382.5" width="120" height="35" as="geometry" />
        </mxCell>
        <mxCell id="vomHpcGAZytRWocXFcRo-32" style="edgeStyle=orthogonalEdgeStyle;rounded=0;orthogonalLoop=1;jettySize=auto;html=1;entryX=1;entryY=0.5;entryDx=0;entryDy=0;" edge="1" parent="vomHpcGAZytRWocXFcRo-36" source="vomHpcGAZytRWocXFcRo-30" target="vomHpcGAZytRWocXFcRo-20">
          <mxGeometry relative="1" as="geometry">
            <Array as="points">
              <mxPoint x="520" y="600" />
            </Array>
          </mxGeometry>
        </mxCell>
        <mxCell id="vomHpcGAZytRWocXFcRo-30" value="反馈:唤醒失败&amp;amp;失败原因" style="whiteSpace=wrap;html=1;" vertex="1" parent="vomHpcGAZytRWocXFcRo-36">
          <mxGeometry x="445" y="470" width="150" height="40" as="geometry" />
        </mxCell>
        <mxCell id="vomHpcGAZytRWocXFcRo-35" value="&lt;font style=&quot;font-size: 24px;&quot;&gt;SMS短信唤醒&lt;/font&gt;" style="rounded=0;whiteSpace=wrap;html=1;fillColor=#fff2cc;gradientColor=#ffd966;strokeColor=#d6b656;" vertex="1" parent="vomHpcGAZytRWocXFcRo-36">
          <mxGeometry width="640" height="50" as="geometry" />
        </mxCell>
      </root>
    </mxGraphModel>
  </diagram>
</mxfile>
